HIERARCHY
ROOT root
{
	OFFSET	0	13.1	24.9
	CHANNELS 6  Xposition Yposition Zposition Xrotation Yrotation Zrotation
	JOINT spine_1
	{
		OFFSET	0	9.99999	0
		CHANNELS 3  Xrotation Yrotation Zrotation
		JOINT spine_2
		{
			OFFSET	0	112	-10
			CHANNELS 3  Xrotation Yrotation Zrotation
			JOINT spine_3
			{
				OFFSET	0	206.5	19.3
				CHANNELS 3  Xrotation Yrotation Zrotation
				JOINT spine_4
				{
					OFFSET	0	110.4	14.6
					CHANNELS 3  Xrotation Yrotation Zrotation
					JOINT neck_1
					{
						OFFSET	0	71.8	-50.3
						CHANNELS 3  Xrotation Yrotation Zrotation
						JOINT neck_2
						{
							OFFSET	0	86.2	-25.8
							CHANNELS 3  Xrotation Yrotation Zrotation
							JOINT head_ee
							{
								OFFSET	0	179.8	-8.7
								CHANNELS 3  Xrotation Yrotation Zrotation
								End Site
								{
									OFFSET	1	0	0
								}
							}
						}
					}
					JOINT left_clavicle
					{
						OFFSET	-43.2	22.4	-70.8
						CHANNELS 3  Xrotation Yrotation Zrotation
						JOINT left_shoulder
						{
							OFFSET	-93.9	-5.79999	48.7
							CHANNELS 3  Xrotation Yrotation Zrotation
							JOINT left_elbow
							{
								OFFSET	-291.4	-30.8	15.2
								CHANNELS 3  Xrotation Yrotation Zrotation
								JOINT left_lowarm_twist
								{
									OFFSET	-110.7	-3.89999	13.6
									CHANNELS 3  Xrotation Yrotation Zrotation
									JOINT left_hand
									{
										OFFSET	-110.7	-3.89999	13.6
										CHANNELS 3  Xrotation Yrotation Zrotation
										JOINT left_ee
										{
											OFFSET	-80.8	-5.10001	12.1
											CHANNELS 3  Xrotation Yrotation Zrotation
											End Site
											{
												OFFSET	1	0	0
											}
										}
									}
								}
							}
						}
					}
					JOINT right_clavicle
					{
						OFFSET	43.2	22.4	-70.8
						CHANNELS 3  Xrotation Yrotation Zrotation
						JOINT right_shoulder
						{
							OFFSET	93.9	-5.79999	48.7
							CHANNELS 3  Xrotation Yrotation Zrotation
							JOINT right_elbow
							{
								OFFSET	291.4	-30.8	15.2
								CHANNELS 3  Xrotation Yrotation Zrotation
								JOINT right_lowarm_twist
								{
									OFFSET	110.7	-3.89999	13.6
									CHANNELS 3  Xrotation Yrotation Zrotation
									JOINT right_hand
									{
										OFFSET	110.7	-3.89999	13.6
										CHANNELS 3  Xrotation Yrotation Zrotation
										JOINT right_ee
										{
											OFFSET	80.8	-5.10001	12.1
											CHANNELS 3  Xrotation Yrotation Zrotation
											End Site
											{
												OFFSET	1	0	0
											}
										}
									}
								}
							}
						}
					}
				}
			}
		}
	}
	JOINT left_hip
	{
		OFFSET	-82.8	-127.5	0.300001
		CHANNELS 3  Xrotation Yrotation Zrotation
		JOINT left_knee
		{
			OFFSET	-28.2	-396.7	2.2
			CHANNELS 3  Xrotation Yrotation Zrotation
			JOINT left_ankle
			{
				OFFSET	-11.7	-411.3	35.4
				CHANNELS 3  Xrotation Yrotation Zrotation
				JOINT left_toes
				{
					OFFSET	0	-60	-88.6
					CHANNELS 3  Xrotation Yrotation Zrotation
					JOINT left_foot_ee
					{
						OFFSET	-22.5	-16.5	-42.2
						CHANNELS 3  Xrotation Yrotation Zrotation
						End Site
						{
							OFFSET	1	0	0
						}
					}
				}
			}
		}
	}
	JOINT right_hip
	{
		OFFSET	82.8	-127.5	0.300001
		CHANNELS 3  Xrotation Yrotation Zrotation
		JOINT right_knee
		{
			OFFSET	28.2	-396.7	2.2
			CHANNELS 3  Xrotation Yrotation Zrotation
			JOINT right_ankle
			{
				OFFSET	11.7	-411.3	35.4
				CHANNELS 3  Xrotation Yrotation Zrotation
				JOINT right_toes
				{
					OFFSET	0	-60	-88.6
					CHANNELS 3  Xrotation Yrotation Zrotation
					JOINT right_foot_ee
					{
						OFFSET	22.5	-16.5	-42.2
						CHANNELS 3  Xrotation Yrotation Zrotation
						End Site
						{
							OFFSET	1	0	0
						}
					}
				}
			}
		}
	}
}
MOTION
Frames: 7
Frame Time: 0.02
391.555 721.904 -1204.45 -164.16049004 5.14371888939 179.000580725 6.78061 0.187302 -0.532807 6.78074 0.220826 -0.519809 6.77858 0.268376 -0.496931 6.77829 0.186528 -0.533078 -24.7503 -4.20876 1.31154 -24.8972 -8.67279 -0.899929 -0.0 0.0 -0.0 4.62313 18.7861 9.17696 -38.8826 -32.8839 47.9121 0.593015 -16.3709 0.085302 -6.6404 -0.28075 0.800638 -0.797928 10.8425 -0.604986 -0.0 0.0 -0.0 9.05412 15.0791 -17.5991 -32.5265 20.1029 -56.2638 0.92832 24.6956 -0.203222 60.437 1.81299 7.1481 -1.05906 -12.2149 1.66038 0.0 0.0 0.0 16.7497 -37.8057 -2.45317 -8.02261 0.246237 1.2056 11.6216 2.58151 -1.6492 6.36562 -0.0 -0.0 -0.0 0.0 -0.0 23.1317 11.839 4.57463 -2.66949 -0.100671 -0.397274 -16.4688 -3.94579 -2.48002 28.93 -0.0 -0.0 0.0 0.0 0.0 
380.351990792 712.479 -1154.53151611 -161.810848203 -30.5853552469 -172.53943231 6.91242 -0.29798 -0.122567 6.91238 -0.289577 -0.14128 6.91314 -0.275525 -0.167035 6.91322 -0.298447 -0.121425 -21.7833 -2.16068 -0.122475 -21.8108 -4.11124 -1.08221 -0.0 0.0 -0.0 1.88584 21.5482 5.19188 -41.9615 -35.8581 50.3883 1.1562 -29.8008 0.30766 -1.90059 -0.0708316 0.232354 0.203984 7.30965 4.37306 -0.0 0.0 -0.0 10.9584 13.8316 -21.8763 -33.2605 21.6525 -50.7606 0.946516 25.1204 -0.210886 55.1415 1.36098 6.64211 -1.43677 -6.98483 6.45261 0.0 0.0 0.0 24.7257 -23.8005 0.792925 -15.5036 0.322085 2.35016 16.3299 -2.85069 -2.30265 6.76766 -0.0 -0.0 -0.0 0.0 -0.0 18.1467 11.2842 5.10976 -9.99632 -0.280756 -1.50648 1.73583 -21.7866 0.260064 27.9328 -0.0 -0.0 0.0 0.0 0.0 
396.849223261 707.503 -1153.88793903 -157.322394505 -41.1520346252 -166.934959782 7.29383 0.223 -0.013792 7.2938 0.223426 0.000426056 7.29384 0.222593 0.0192712 7.29391 0.222843 -0.0161253 -18.8575 1.57362 -1.95704 -18.8688 4.0636 -1.19818 -0.0 0.0 -0.0 0.35645 20.2629 2.88163 -36.9872 -36.8423 61.8021 0.884657 -23.6644 0.185337 0.657313 0.0226957 -0.0808809 -0.120215 9.14606 3.02061 -0.0 0.0 -0.0 11.5114 11.4358 -23.1691 -30.7207 23.4648 -47.1761 1.04465 27.3604 -0.254282 49.858 0.958663 6.09824 -0.937061 -3.5292 4.71348 0.0 0.0 0.0 29.4193 -15.3483 2.28236 -17.9283 0.314544 2.72207 17.1103 1.47432 -2.3788 10.0743 -0.0 -0.0 -0.0 0.0 -0.0 15.6099 6.47698 5.75374 -2.60643 -0.0985072 -0.387838 4.44581 -24.7288 0.670759 25.6373 -0.0 -0.0 0.0 0.0 0.0 
395.919905785 707.503 -1153.79925068 -157.668375344 -40.1800180599 -167.465869981 7.29383 0.223 -0.013792 7.2938 0.223426 0.000426056 7.29384 0.222593 0.0192712 7.29391 0.222843 -0.0161253 -18.8575 1.57362 -1.95704 -18.8688 4.0636 -1.19818 -0.0 0.0 -0.0 0.35645 20.2629 2.88163 -36.9872 -36.8423 61.8021 0.884657 -23.6644 0.185337 0.657313 0.0226957 -0.0808809 -0.120215 9.14606 3.02061 -0.0 0.0 -0.0 11.5114 11.4358 -23.1691 -30.7207 23.4648 -47.1761 1.04465 27.3604 -0.254282 49.858 0.958663 6.09824 -0.937061 -3.5292 4.71348 0.0 0.0 0.0 29.4193 -15.3483 2.28236 -17.9283 0.314544 2.72207 17.1103 1.47432 -2.3788 10.0743 -0.0 -0.0 -0.0 0.0 -0.0 15.6099 6.47698 5.75374 -2.60643 -0.0985072 -0.387838 4.44581 -24.7288 0.670759 25.6373 -0.0 -0.0 0.0 0.0 0.0 
395.313965719 707.503 -1153.75068062 -157.884749208 -39.5458091564 -167.803445755 7.29383 0.223 -0.013792 7.2938 0.223426 0.000426056 7.29384 0.222593 0.0192712 7.29391 0.222843 -0.0161253 -18.8575 1.57362 -1.95704 -18.8688 4.0636 -1.19818 -0.0 0.0 -0.0 0.35645 20.2629 2.88163 -36.9872 -36.8423 61.8021 0.884657 -23.6644 0.185337 0.657313 0.0226957 -0.0808809 -0.120215 9.14606 3.02061 -0.0 0.0 -0.0 11.5114 11.4358 -23.1691 -30.7207 23.4648 -47.1761 1.04465 27.3604 -0.254282 49.858 0.958663 6.09824 -0.937061 -3.5292 4.71348 0.0 0.0 0.0 29.4193 -15.3483 2.28236 -17.9283 0.314544 2.72207 17.1103 1.47432 -2.3788 10.0743 -0.0 -0.0 -0.0 0.0 -0.0 15.6099 6.47698 5.75374 -2.60643 -0.0985072 -0.387838 4.44581 -24.7288 0.670759 25.6373 -0.0 -0.0 0.0 0.0 0.0 
395.611028053 707.503 -1153.77358097 -157.779555819 -39.8567766307 -167.638769176 7.29383 0.223 -0.013792 7.2938 0.223426 0.000426056 7.29384 0.222593 0.0192712 7.29391 0.222843 -0.0161253 -18.8575 1.57362 -1.95704 -18.8688 4.0636 -1.19818 -0.0 0.0 -0.0 0.35645 20.2629 2.88163 -36.9872 -36.8423 61.8021 0.884657 -23.6644 0.185337 0.657313 0.0226957 -0.0808809 -0.120215 9.14606 3.02061 -0.0 0.0 -0.0 11.5114 11.4358 -23.1691 -30.7207 23.4648 -47.1761 1.04465 27.3604 -0.254282 49.858 0.958663 6.09824 -0.937061 -3.5292 4.71348 0.0 0.0 0.0 29.4193 -15.3483 2.28236 -17.9283 0.314544 2.72207 17.1103 1.47432 -2.3788 10.0743 -0.0 -0.0 -0.0 0.0 -0.0 15.6099 6.47698 5.75374 -2.60643 -0.0985072 -0.387838 4.44581 -24.7288 0.670759 25.6373 -0.0 -0.0 0.0 0.0 0.0 
395.380979833 707.503 -1153.75569374 -157.861165458 -39.6159682159 -167.766432309 7.29383 0.223 -0.013792 7.2938 0.223426 0.000426056 7.29384 0.222593 0.0192712 7.29391 0.222843 -0.0161253 -18.8575 1.57362 -1.95704 -18.8688 4.0636 -1.19818 -0.0 0.0 -0.0 0.35645 20.2629 2.88163 -36.9872 -36.8423 61.8021 0.884657 -23.6644 0.185337 0.657313 0.0226957 -0.0808809 -0.120215 9.14606 3.02061 -0.0 0.0 -0.0 11.5114 11.4358 -23.1691 -30.7207 23.4648 -47.1761 1.04465 27.3604 -0.254282 49.858 0.958663 6.09824 -0.937061 -3.5292 4.71348 0.0 0.0 0.0 29.4193 -15.3483 2.28236 -17.9283 0.314544 2.72207 17.1103 1.47432 -2.3788 10.0743 -0.0 -0.0 -0.0 0.0 -0.0 15.6099 6.47698 5.75374 -2.60643 -0.0985072 -0.387838 4.44581 -24.7288 0.670759 25.6373 -0.0 -0.0 0.0 0.0 0.0 
